  0
SECTION
  2
HEADER
  9
$ACADVER
  1
AC1014
  9
$HANDSEED
  5
FFFF
  9
$MEASUREMENT
 70
     1
  0
ENDSEC
  0
SECTION
  2
TABLES
  0
TABLE
  2
VPORT
  5
8
330
0
100
AcDbSymbolTable
 70
     4
  0
VPORT
  5
2E
330
8
100
AcDbSymbolTableRecord
100
AcDbViewportTableRecord
  2
*ACTIVE
 70
     0
 10
0.0
 20
0.0
 11
1.0
 21
1.0
 12
210.0
 22
148.5
 13
0.0
 23
0.0
 14
10.0
 24
10.0
 15
10.0
 25
10.0
 16
0.0
 26
0.0
 36
1.0
 17
0.0
 27
0.0
 37
0.0
 40
341.0
 41
1.24
 42
50.0
 43
0.0
 44
0.0
 50
0.0
 51
0.0
 71
     0
 72
   100
 73
     1
 74
     3
 75
     0
 76
     0
 77
     0
 78
     0
  0
ENDTAB
  0
TABLE
  2
LTYPE
  5
5
330
0
100
AcDbSymbolTable
 70
     1
  0
LTYPE
  5
14
330
5
100
AcDbSymbolTableRecord
100
AcDbLinetypeTableRecord
  2
BYBLOCK
 70
     0
  3

 72
    65
 73
     0
 40
0.0
  0
LTYPE
  5
15
330
5
100
AcDbSymbolTableRecord
100
AcDbLinetypeTableRecord
  2
BYLAYER
 70
     0
  3

 72
    65
 73
     0
 40
0.0
  0
LTYPE
  5
16
330
5
100
AcDbSymbolTableRecord
100
AcDbLinetypeTableRecord
  2
CONTINUOUS
 70
     0
  3
Solid line
 72
    65
 73
     0
 40
0.0
  0
ENDTAB
  0
TABLE
  2
LAYER
  5
2
100
AcDbSymbolTable
 70
1
  0
LAYER
  5
50
100
AcDbSymbolTableRecord
100
AcDbLayerTableRecord
  2
0
 70
0
  6
CONTINUOUS
  0
ENDTAB
  0
TABLE
  2
STYLE
  5
3
330
0
100
AcDbSymbolTable
 70
     1
  0
STYLE
  5
11
330
3
100
AcDbSymbolTableRecord
100
AcDbTextStyleTableRecord
  2
STANDARD
 70
     0
 40
0.0
 41
1.0
 50
0.0
 71
     0
 42
2.5
  3
txt
  4

  0
ENDTAB
  0
TABLE
  2
VIEW
  5
6
330
0
100
AcDbSymbolTable
 70
     0
  0
ENDTAB
  0
TABLE
  2
UCS
  5
7
330
0
100
AcDbSymbolTable
 70
     0
  0
ENDTAB
  0
TABLE
  2
APPID
  5
9
330
0
100
AcDbSymbolTable
 70
     2
  0
APPID
  5
12
330
9
100
AcDbSymbolTableRecord
100
AcDbRegAppTableRecord
  2
ACAD
 70
     0
  0
ENDTAB
  0
TABLE
  2
DIMSTYLE
  5
A
330
0
100
AcDbSymbolTable
 70
     1
  0
DIMSTYLE
105
27
330
A
100
AcDbSymbolTableRecord
100
AcDbDimStyleTableRecord
  2
ISO-25
 70
     0
  3

  4

  5

  6

  7

 40
1.0
 41
2.5
 42
0.625
 43
3.75
 44
1.25
 45
0.0
 46
0.0
 47
0.0
 48
0.0
140
2.5
141
2.5
142
0.0
143
0.03937007874016
144
1.0
145
0.0
146
1.0
147
0.625
 71
     0
 72
     0
 73
     0
 74
     0
 75
     0
 76
     0
 77
     1
 78
     8
170
     0
171
     3
172
     1
173
     0
174
     0
175
     0
176
     0
177
     0
178
     0
270
     2
271
     2
272
     2
273
     2
274
     3
340
11
275
     0
280
     0
281
     0
282
     0
283
     0
284
     8
285
     0
286
     0
287
     3
288
     0
  0
ENDTAB
  0
TABLE
  2
BLOCK_RECORD
  5
1
330
0
100
AcDbSymbolTable
 70
     1
  0
BLOCK_RECORD
  5
1F
330
1
100
AcDbSymbolTableRecord
100
AcDbBlockTableRecord
  2
*MODEL_SPACE
  0
BLOCK_RECORD
  5
1B
330
1
100
AcDbSymbolTableRecord
100
AcDbBlockTableRecord
  2
*PAPER_SPACE
  0
ENDTAB
  0
ENDSEC
  0
SECTION
  2
BLOCKS
  0
BLOCK
  5
20
330
1F
100
AcDbEntity
  8
0
100
AcDbBlockBegin
  2
*MODEL_SPACE
 70
     0
 10
0.0
 20
0.0
 30
0.0
  3
*MODEL_SPACE
  1

  0
ENDBLK
  5
21
330
1F
100
AcDbEntity
  8
0
100
AcDbBlockEnd
  0
BLOCK
  5
1C
330
1B
100
AcDbEntity
 67
     1
  8
0
100
AcDbBlockBegin
  2
*PAPER_SPACE
  1

  0
ENDBLK
  5
1D
330
1B
100
AcDbEntity
 67
     1
  8
0
100
AcDbBlockEnd
  0
ENDSEC
  0
SECTION
  2
ENTITIES
  0
LWPOLYLINE
  5
100
100
AcDbEntity
  8
0
 62
4
100
AcDbPolyline
 90
2
 70
0
 10
137.111740
 20
-50.209785
 30
0.0
 10
137.586720
 20
-50.209785
 30
0.0
  0
LWPOLYLINE
  5
101
100
AcDbEntity
  8
0
 62
4
100
AcDbPolyline
 90
3
 70
0
 10
137.015220
 20
-50.496805
 30
0.0
 10
137.347960
 20
-49.496045
 30
0.0
 10
137.683240
 20
-50.496805
 30
0.0
  0
LWPOLYLINE
  5
102
100
AcDbEntity
  8
0
 62
4
100
AcDbPolyline
 90
19
 70
0
 10
138.348720
 20
-49.971025
 30
0.0
 10
138.490960
 20
-50.019285
 30
0.0
 10
138.539220
 20
-50.067545
 30
0.0
 10
138.587480
 20
-50.161525
 30
0.0
 10
138.587480
 20
-50.306305
 30
0.0
 10
138.539220
 20
-50.400285
 30
0.0
 10
138.490960
 20
-50.448545
 30
0.0
 10
138.396980
 20
-50.496805
 30
0.0
 10
138.015980
 20
-50.496805
 30
0.0
 10
138.015980
 20
-49.496045
 30
0.0
 10
138.348720
 20
-49.496045
 30
0.0
 10
138.442700
 20
-49.544305
 30
0.0
 10
138.490960
 20
-49.590025
 30
0.0
 10
138.539220
 20
-49.686545
 30
0.0
 10
138.539220
 20
-49.780525
 30
0.0
 10
138.490960
 20
-49.877045
 30
0.0
 10
138.442700
 20
-49.925305
 30
0.0
 10
138.348720
 20
-49.971025
 30
0.0
 10
138.015980
 20
-49.971025
 30
0.0
  0
LWPOLYLINE
  5
103
100
AcDbEntity
  8
0
 62
4
100
AcDbPolyline
 90
2
 70
0
 10
137.182860
 20
-52.810745
 30
0.0
 10
137.657840
 20
-52.810745
 30
0.0
  0
LWPOLYLINE
  5
104
100
AcDbEntity
  8
0
 62
4
100
AcDbPolyline
 90
3
 70
0
 10
137.086340
 20
-53.095225
 30
0.0
 10
137.419080
 20
-52.097005
 30
0.0
 10
137.754360
 20
-53.095225
 30
0.0
  0
LWPOLYLINE
  5
105
100
AcDbEntity
  8
0
 62
4
100
AcDbPolyline
 90
2
 70
0
 10
138.038840
 20
-52.810745
 30
0.0
 10
138.516360
 20
-52.810745
 30
0.0
  0
LWPOLYLINE
  5
106
100
AcDbEntity
  8
0
 62
4
100
AcDbPolyline
 90
3
 70
0
 10
137.944860
 20
-53.095225
 30
0.0
 10
138.277600
 20
-52.097005
 30
0.0
 10
138.610340
 20
-53.095225
 30
0.0
  0
LWPOLYLINE
  5
107
100
AcDbEntity
  8
0
 62
4
100
AcDbPolyline
 90
3
 70
0
 10
137.015220
 20
-54.695425
 30
0.0
 10
137.347960
 20
-55.696185
 30
0.0
 10
137.683240
 20
-54.695425
 30
0.0
  0
LWPOLYLINE
  5
108
100
AcDbEntity
  8
0
 62
4
100
AcDbPolyline
 90
16
 70
0
 10
138.587480
 20
-55.599665
 30
0.0
 10
138.539220
 20
-55.647925
 30
0.0
 10
138.396980
 20
-55.696185
 30
0.0
 10
138.300460
 20
-55.696185
 30
0.0
 10
138.158220
 20
-55.647925
 30
0.0
 10
138.064240
 20
-55.553945
 30
0.0
 10
138.015980
 20
-55.457425
 30
0.0
 10
137.967720
 20
-55.266925
 30
0.0
 10
137.967720
 20
-55.124685
 30
0.0
 10
138.015980
 20
-54.934185
 30
0.0
 10
138.064240
 20
-54.837665
 30
0.0
 10
138.158220
 20
-54.743685
 30
0.0
 10
138.300460
 20
-54.695425
 30
0.0
 10
138.396980
 20
-54.695425
 30
0.0
 10
138.539220
 20
-54.743685
 30
0.0
 10
138.587480
 20
-54.791945
 30
0.0
  0
LWPOLYLINE
  5
109
100
AcDbEntity
  8
0
 62
4
100
AcDbPolyline
 90
16
 70
0
 10
139.585700
 20
-55.599665
 30
0.0
 10
139.539980
 20
-55.647925
 30
0.0
 10
139.395200
 20
-55.696185
 30
0.0
 10
139.301220
 20
-55.696185
 30
0.0
 10
139.158980
 20
-55.647925
 30
0.0
 10
139.062460
 20
-55.553945
 30
0.0
 10
139.014200
 20
-55.457425
 30
0.0
 10
138.968480
 20
-55.266925
 30
0.0
 10
138.968480
 20
-55.124685
 30
0.0
 10
139.014200
 20
-54.934185
 30
0.0
 10
139.062460
 20
-54.837665
 30
0.0
 10
139.158980
 20
-54.743685
 30
0.0
 10
139.301220
 20
-54.695425
 30
0.0
 10
139.395200
 20
-54.695425
 30
0.0
 10
139.539980
 20
-54.743685
 30
0.0
 10
139.585700
 20
-54.791945
 30
0.0
  0
LWPOLYLINE
  5
10a
100
AcDbEntity
  8
0
 62
4
100
AcDbPolyline
 90
17
 70
0
 10
137.586720
 20
-57.243045
 30
0.0
 10
137.492740
 20
-57.194785
 30
0.0
 10
137.347960
 20
-57.194785
 30
0.0
 10
137.205720
 20
-57.243045
 30
0.0
 10
137.111740
 20
-57.339565
 30
0.0
 10
137.063480
 20
-57.433545
 30
0.0
 10
137.015220
 20
-57.624045
 30
0.0
 10
137.015220
 20
-57.766285
 30
0.0
 10
137.063480
 20
-57.956785
 30
0.0
 10
137.111740
 20
-58.053305
 30
0.0
 10
137.205720
 20
-58.147285
 30
0.0
 10
137.347960
 20
-58.195545
 30
0.0
 10
137.444480
 20
-58.195545
 30
0.0
 10
137.586720
 20
-58.147285
 30
0.0
 10
137.634980
 20
-58.101565
 30
0.0
 10
137.634980
 20
-57.766285
 30
0.0
 10
137.444480
 20
-57.766285
 30
0.0
  0
LWPOLYLINE
  5
10b
100
AcDbEntity
  8
0
 62
4
100
AcDbPolyline
 90
4
 70
0
 10
138.064240
 20
-58.195545
 30
0.0
 10
138.064240
 20
-57.194785
 30
0.0
 10
138.633200
 20
-58.195545
 30
0.0
 10
138.633200
 20
-57.194785
 30
0.0
  0
LWPOLYLINE
  5
10c
100
AcDbEntity
  8
0
 62
4
100
AcDbPolyline
 90
12
 70
1
 10
139.110720
 20
-58.195545
 30
0.0
 10
139.110720
 20
-57.194785
 30
0.0
 10
139.349480
 20
-57.194785
 30
0.0
 10
139.491720
 20
-57.243045
 30
0.0
 10
139.585700
 20
-57.339565
 30
0.0
 10
139.633960
 20
-57.433545
 30
0.0
 10
139.682220
 20
-57.624045
 30
0.0
 10
139.682220
 20
-57.766285
 30
0.0
 10
139.633960
 20
-57.956785
 30
0.0
 10
139.585700
 20
-58.053305
 30
0.0
 10
139.491720
 20
-58.147285
 30
0.0
 10
139.349480
 20
-58.195545
 30
0.0
  0
LWPOLYLINE
  5
10d
100
AcDbEntity
  8
0
 62
4
100
AcDbPolyline
 90
19
 70
0
 10
137.419080
 20
-60.171665
 30
0.0
 10
137.563860
 20
-60.219925
 30
0.0
 10
137.609580
 20
-60.268185
 30
0.0
 10
137.657840
 20
-60.362165
 30
0.0
 10
137.657840
 20
-60.504405
 30
0.0
 10
137.609580
 20
-60.600925
 30
0.0
 10
137.563860
 20
-60.649185
 30
0.0
 10
137.467340
 20
-60.694905
 30
0.0
 10
137.086340
 20
-60.694905
 30
0.0
 10
137.086340
 20
-59.696685
 30
0.0
 10
137.419080
 20
-59.696685
 30
0.0
 10
137.515600
 20
-59.742405
 30
0.0
 10
137.563860
 20
-59.790665
 30
0.0
 10
137.609580
 20
-59.887185
 30
0.0
 10
137.609580
 20
-59.981165
 30
0.0
 10
137.563860
 20
-60.077685
 30
0.0
 10
137.515600
 20
-60.123405
 30
0.0
 10
137.419080
 20
-60.171665
 30
0.0
 10
137.086340
 20
-60.171665
 30
0.0
  0
LWPOLYLINE
  5
10e
100
AcDbEntity
  8
0
 62
4
100
AcDbPolyline
 90
19
 70
0
 10
138.419840
 20
-60.171665
 30
0.0
 10
138.562080
 20
-60.219925
 30
0.0
 10
138.610340
 20
-60.268185
 30
0.0
 10
138.658600
 20
-60.362165
 30
0.0
 10
138.658600
 20
-60.504405
 30
0.0
 10
138.610340
 20
-60.600925
 30
0.0
 10
138.562080
 20
-60.649185
 30
0.0
 10
138.468100
 20
-60.694905
 30
0.0
 10
138.087100
 20
-60.694905
 30
0.0
 10
138.087100
 20
-59.696685
 30
0.0
 10
138.419840
 20
-59.696685
 30
0.0
 10
138.516360
 20
-59.742405
 30
0.0
 10
138.562080
 20
-59.790665
 30
0.0
 10
138.610340
 20
-59.887185
 30
0.0
 10
138.610340
 20
-59.981165
 30
0.0
 10
138.562080
 20
-60.077685
 30
0.0
 10
138.516360
 20
-60.123405
 30
0.0
 10
138.419840
 20
-60.171665
 30
0.0
 10
138.087100
 20
-60.171665
 30
0.0
  0
LWPOLYLINE
  5
10f
100
AcDbEntity
  8
0
 62
4
100
AcDbPolyline
 90
19
 70
0
 10
137.492740
 20
-62.871685
 30
0.0
 10
137.634980
 20
-62.919945
 30
0.0
 10
137.683240
 20
-62.968205
 30
0.0
 10
137.728960
 20
-63.062185
 30
0.0
 10
137.728960
 20
-63.204425
 30
0.0
 10
137.683240
 20
-63.300945
 30
0.0
 10
137.634980
 20
-63.349205
 30
0.0
 10
137.538460
 20
-63.394925
 30
0.0
 10
137.157460
 20
-63.394925
 30
0.0
 10
137.157460
 20
-62.396705
 30
0.0
 10
137.492740
 20
-62.396705
 30
0.0
 10
137.586720
 20
-62.442425
 30
0.0
 10
137.634980
 20
-62.490685
 30
0.0
 10
137.683240
 20
-62.587205
 30
0.0
 10
137.683240
 20
-62.681185
 30
0.0
 10
137.634980
 20
-62.777705
 30
0.0
 10
137.586720
 20
-62.823425
 30
0.0
 10
137.492740
 20
-62.871685
 30
0.0
 10
137.157460
 20
-62.871685
 30
0.0
  0
LWPOLYLINE
  5
110
100
AcDbEntity
  8
0
 62
4
100
AcDbPolyline
 90
2
 70
0
 10
138.109960
 20
-63.110445
 30
0.0
 10
138.587480
 20
-63.110445
 30
0.0
  0
LWPOLYLINE
  5
111
100
AcDbEntity
  8
0
 62
4
100
AcDbPolyline
 90
3
 70
0
 10
138.015980
 20
-63.394925
 30
0.0
 10
138.348720
 20
-62.396705
 30
0.0
 10
138.681460
 20
-63.394925
 30
0.0
  0
LWPOLYLINE
  5
112
100
AcDbEntity
  8
0
 62
4
100
AcDbPolyline
 90
2
 70
0
 10
106.547920
 20
-68.144725
 30
0.0
 10
106.547920
 20
-45.142485
 30
0.0
  0
LWPOLYLINE
  5
113
100
AcDbEntity
  8
0
 62
4
100
AcDbPolyline
 90
2
 70
0
 10
136.547860
 20
-68.144725
 30
0.0
 10
106.547920
 20
-68.144725
 30
0.0
  0
LWPOLYLINE
  5
114
100
AcDbEntity
  8
0
 62
4
100
AcDbPolyline
 90
2
 70
0
 10
136.547860
 20
-45.142485
 30
0.0
 10
136.547860
 20
-68.144725
 30
0.0
  0
LWPOLYLINE
  5
115
100
AcDbEntity
  8
0
 62
4
100
AcDbPolyline
 90
2
 70
0
 10
106.547920
 20
-45.142485
 30
0.0
 10
136.547860
 20
-45.142485
 30
0.0
  0
LWPOLYLINE
  5
116
100
AcDbEntity
  8
0
 62
4
100
AcDbPolyline
 90
2
 70
0
 10
136.403080
 20
-48.962645
 30
0.0
 10
133.743700
 20
-48.962645
 30
0.0
  0
LWPOLYLINE
  5
117
100
AcDbEntity
  8
0
 62
4
100
AcDbPolyline
 90
2
 70
0
 10
136.403080
 20
-61.723605
 30
0.0
 10
136.403080
 20
-48.962645
 30
0.0
  0
LWPOLYLINE
  5
118
100
AcDbEntity
  8
0
 62
4
100
AcDbPolyline
 90
2
 70
0
 10
133.743700
 20
-61.723605
 30
0.0
 10
133.743700
 20
-48.962645
 30
0.0
  0
LWPOLYLINE
  5
119
100
AcDbEntity
  8
0
 62
4
100
AcDbPolyline
 90
2
 70
0
 10
136.403080
 20
-61.723605
 30
0.0
 10
133.743700
 20
-61.723605
 30
0.0
  0
SPLINE
  5
11a
100
AcDbEntity
  8
0
 62
7
100
AcDbSpline
 70
8
 71
3
 72
8
 73
4
 74
0
 40
0
 40
0
 40
0
 40
0
 40
1
 40
1
 40
1
 40
1
 10
117.779533
 20
-64.257938
 30
0.0
 10
117.112171
 20
-64.257938
 30
0.0
 10
116.510521
 20
-64.659947
 30
0.0
 10
116.255133
 20
-65.276510
 30
0.0
  0
SPLINE
  5
11b
100
AcDbEntity
  8
0
 62
7
100
AcDbSpline
 70
8
 71
3
 72
8
 73
4
 74
0
 40
0
 40
0
 40
0
 40
0
 40
1
 40
1
 40
1
 40
1
 10
116.255133
 20
-65.276510
 30
0.0
 10
115.999744
 20
-65.893072
 30
0.0
 10
116.140911
 20
-66.602766
 30
0.0
 10
116.612807
 20
-67.074663
 30
0.0
  0
SPLINE
  5
11c
100
AcDbEntity
  8
0
 62
7
100
AcDbSpline
 70
8
 71
3
 72
8
 73
4
 74
0
 40
0
 40
0
 40
0
 40
0
 40
1
 40
1
 40
1
 40
1
 10
116.612807
 20
-67.074663
 30
0.0
 10
117.084704
 20
-67.546559
 30
0.0
 10
117.794398
 20
-67.687726
 30
0.0
 10
118.410961
 20
-67.432338
 30
0.0
  0
SPLINE
  5
11d
100
AcDbEntity
  8
0
 62
7
100
AcDbSpline
 70
8
 71
3
 72
8
 73
4
 74
0
 40
0
 40
0
 40
0
 40
0
 40
1
 40
1
 40
1
 40
1
 10
118.410961
 20
-67.432338
 30
0.0
 10
119.027523
 20
-67.176949
 30
0.0
 10
119.429532
 20
-66.575300
 30
0.0
 10
119.429532
 20
-65.907937
 30
0.0
  0
SPLINE
  5
11e
100
AcDbEntity
  8
0
 62
7
100
AcDbSpline
 70
8
 71
3
 72
8
 73
4
 74
0
 40
0
 40
0
 40
0
 40
0
 40
1
 40
1
 40
1
 40
1
 10
119.429532
 20
-65.907937
 30
0.0
 10
119.429532
 20
-65.470330
 30
0.0
 10
119.255694
 20
-65.050646
 30
0.0
 10
118.946259
 20
-64.741212
 30
0.0
  0
SPLINE
  5
11f
100
AcDbEntity
  8
0
 62
7
100
AcDbSpline
 70
8
 71
3
 72
8
 73
4
 74
0
 40
0
 40
0
 40
0
 40
0
 40
1
 40
1
 40
1
 40
1
 10
118.946259
 20
-64.741212
 30
0.0
 10
118.636824
 20
-64.431777
 30
0.0
 10
118.217140
 20
-64.257938
 30
0.0
 10
117.779533
 20
-64.257938
 30
0.0
  0
LWPOLYLINE
  5
120
100
AcDbEntity
  8
0
 62
4
100
AcDbPolyline
 90
3
 70
0
 10
136.403080
 20
-62.993605
 30
0.0
 10
136.403080
 20
-64.324565
 30
0.0
 10
135.074660
 20
-64.324565
 30
0.0
  0
SPLINE
  5
121
100
AcDbEntity
  8
0
 62
7
100
AcDbSpline
 70
8
 71
3
 72
8
 73
4
 74
0
 40
0
 40
0
 40
0
 40
0
 40
1
 40
1
 40
1
 40
1
 10
117.779533
 20
-45.758107
 30
0.0
 10
117.112171
 20
-45.758107
 30
0.0
 10
116.510521
 20
-46.160116
 30
0.0
 10
116.255133
 20
-46.776679
 30
0.0
  0
SPLINE
  5
122
100
AcDbEntity
  8
0
 62
7
100
AcDbSpline
 70
8
 71
3
 72
8
 73
4
 74
0
 40
0
 40
0
 40
0
 40
0
 40
1
 40
1
 40
1
 40
1
 10
116.255133
 20
-46.776679
 30
0.0
 10
115.999744
 20
-47.393241
 30
0.0
 10
116.140911
 20
-48.102935
 30
0.0
 10
116.612807
 20
-48.574832
 30
0.0
  0
SPLINE
  5
123
100
AcDbEntity
  8
0
 62
7
100
AcDbSpline
 70
8
 71
3
 72
8
 73
4
 74
0
 40
0
 40
0
 40
0
 40
0
 40
1
 40
1
 40
1
 40
1
 10
116.612807
 20
-48.574832
 30
0.0
 10
117.084704
 20
-49.046728
 30
0.0
 10
117.794398
 20
-49.187895
 30
0.0
 10
118.410961
 20
-48.932507
 30
0.0
  0
SPLINE
  5
124
100
AcDbEntity
  8
0
 62
7
100
AcDbSpline
 70
8
 71
3
 72
8
 73
4
 74
0
 40
0
 40
0
 40
0
 40
0
 40
1
 40
1
 40
1
 40
1
 10
118.410961
 20
-48.932507
 30
0.0
 10
119.027523
 20
-48.677118
 30
0.0
 10
119.429532
 20
-48.075469
 30
0.0
 10
119.429532
 20
-47.408106
 30
0.0
  0
SPLINE
  5
125
100
AcDbEntity
  8
0
 62
7
100
AcDbSpline
 70
8
 71
3
 72
8
 73
4
 74
0
 40
0
 40
0
 40
0
 40
0
 40
1
 40
1
 40
1
 40
1
 10
119.429532
 20
-47.408106
 30
0.0
 10
119.429532
 20
-46.970499
 30
0.0
 10
119.255694
 20
-46.550816
 30
0.0
 10
118.946259
 20
-46.241381
 30
0.0
  0
SPLINE
  5
126
100
AcDbEntity
  8
0
 62
7
100
AcDbSpline
 70
8
 71
3
 72
8
 73
4
 74
0
 40
0
 40
0
 40
0
 40
0
 40
1
 40
1
 40
1
 40
1
 10
118.946259
 20
-46.241381
 30
0.0
 10
118.636824
 20
-45.931946
 30
0.0
 10
118.217140
 20
-45.758107
 30
0.0
 10
117.779533
 20
-45.758107
 30
0.0
  0
LWPOLYLINE
  5
127
100
AcDbEntity
  8
0
 62
7
100
AcDbPolyline
 90
1
 70
1
 10
117.779533
 20
-64.257938
 30
0.0
  0
LWPOLYLINE
  5
128
100
AcDbEntity
  8
0
 62
7
100
AcDbPolyline
 90
1
 70
1
 10
117.779533
 20
-45.758107
 30
0.0
  0
LWPOLYLINE
  5
129
100
AcDbEntity
  8
0
 62
7
100
AcDbPolyline
 90
1
 70
1
 10
135.054073
 20
-50.306752
 30
0.0
  0
LWPOLYLINE
  5
12a
100
AcDbEntity
  8
0
 62
7
100
AcDbPolyline
 90
1
 70
1
 10
135.054073
 20
-52.846752
 30
0.0
  0
LWPOLYLINE
  5
12b
100
AcDbEntity
  8
0
 62
7
100
AcDbPolyline
 90
1
 70
1
 10
135.054073
 20
-55.386752
 30
0.0
  0
LWPOLYLINE
  5
12c
100
AcDbEntity
  8
0
 62
7
100
AcDbPolyline
 90
1
 70
1
 10
135.054073
 20
-57.926752
 30
0.0
  0
LWPOLYLINE
  5
12d
100
AcDbEntity
  8
0
 62
7
100
AcDbPolyline
 90
1
 70
1
 10
135.054073
 20
-60.466752
 30
0.0
  0
LWPOLYLINE
  5
12e
100
AcDbEntity
  8
0
 62
2
100
AcDbPolyline
 90
4
 70
1
 10
135.954503
 20
-62.108100
 30
0.0
 10
135.954503
 20
-63.907944
 30
0.0
 10
134.154405
 20
-63.907944
 30
0.0
 10
134.154405
 20
-62.108100
 30
0.0
  0
ENDSEC
  0
SECTION
  2
OBJECTS
  0
DICTIONARY
  5
C
330
0
100
AcDbDictionary
  3
ACAD_GROUP
350
D
  3
ACAD_MLINESTYLE
350
17
  0
DICTIONARY
  5
D
330
C
100
AcDbDictionary
  0
DICTIONARY
  5
1A
330
C
100
AcDbDictionary
  0
DICTIONARY
  5
17
330
C
100
AcDbDictionary
  3
STANDARD
350
18
  0
DICTIONARY
  5
19
330
C
100
AcDbDictionary
  0
ENDSEC
  0
EOF
