<?xml version="1.0" encoding="UTF-8" standalone="no"?>
<svg
   xmlns:dc="http://purl.org/dc/elements/1.1/"
   xmlns:cc="http://creativecommons.org/ns#"
   xmlns:rdf="http://www.w3.org/1999/02/22-rdf-syntax-ns#"
   xmlns:svg="http://www.w3.org/2000/svg"
   xmlns="http://www.w3.org/2000/svg"
   xmlns:sodipodi="http://sodipodi.sourceforge.net/DTD/sodipodi-0.dtd"
   xmlns:inkscape="http://www.inkscape.org/namespaces/inkscape"
   inkscape:version="1.0 (4035a4f, 2020-05-01)"
   sodipodi:docname="P3456.svg"
   id="svg15427"
   viewBox="0 0 1088.258 3728.4339"
   height="0.9470222cm"
   width="0.27641752cm"
   version="1.1">
  <metadata
     id="metadata15433">
    <rdf:RDF>
      <cc:Work
         rdf:about="">
        <dc:format>image/svg+xml</dc:format>
        <dc:type
           rdf:resource="http://purl.org/dc/dcmitype/StillImage" />
        <dc:title>SVG Picture created as codecar-F_SilkS.svg date 2020/06/10 12:56:03 </dc:title>
      </cc:Work>
    </rdf:RDF>
  </metadata>
  <defs
     id="defs15431" />
  <sodipodi:namedview
     fit-margin-bottom="0"
     fit-margin-right="0"
     fit-margin-left="0"
     fit-margin-top="0"
     inkscape:guide-bbox="true"
     showguides="true"
     inkscape:current-layer="layer1"
     inkscape:window-maximized="0"
     inkscape:window-y="23"
     inkscape:window-x="-2"
     inkscape:cy="17.896483"
     inkscape:cx="5.2236382"
     inkscape:zoom="16.902763"
     inkscape:snap-global="false"
     showgrid="false"
     id="namedview15429"
     inkscape:window-height="813"
     inkscape:window-width="1351"
     inkscape:pageshadow="2"
     inkscape:pageopacity="0"
     guidetolerance="10"
     gridtolerance="10"
     objecttolerance="10"
     borderopacity="1"
     bordercolor="#666666"
     pagecolor="#ffffff"
     inkscape:document-rotation="0" />
  <title
     id="title833">SVG Picture created as codecar-F_SilkS.svg date 2020/06/10 12:56:03 </title>
  <desc
     id="desc835">Picture generated by PCBNEW </desc>
  <path
     id="rect8264"
     style="fill:#000000;stroke:none;stroke-width:104.167;stroke-opacity:0.923754"
     d="M 0,0 V 3728.434 H 1088.258 V 0 Z m 230.307,159.708 h 150.146 a 29.530502,29.530502 0 0 1 13.021,3.052 l 38.045,18.921 a 29.530502,29.530502 0 0 1 7.731,5.697 l 18.921,18.921 a 29.530502,29.530502 0 0 1 5.697,7.934 l 18.107,37.028 a 29.530502,29.530502 0 0 1 2.848,12.818 v 57.169 a 29.530502,29.530502 0 0 1 -2.848,12.818 l -18.107,37.028 a 29.530502,29.530502 0 0 1 -5.697,7.934 l -18.921,18.921 a 29.530502,29.530502 0 0 1 -7.731,5.697 l -38.045,18.921 a 29.530502,29.530502 0 0 1 -13.021,3.052 H 259.807 V 583.09 a 29.52755,29.52755 0 0 1 -29.5,29.703 29.52755,29.52755 0 0 1 -29.5,-29.703 V 396.118 a 29.52755,29.52755 0 0 0 0,-0.203 V 189.209 a 29.530502,29.530502 0 0 1 29.5,-29.501 z m 357.055,0 h 242.921 a 29.530502,29.530502 0 0 1 22.379,48.828 l -89.315,102.133 a 29.530502,29.530502 0 0 1 5.29,2.034 l 37.841,19.125 a 29.530502,29.530502 0 0 1 7.732,5.493 l 18.92,18.921 a 29.530502,29.530502 0 0 1 5.697,7.934 l 18.107,37.028 a 29.530502,29.530502 0 0 1 2.849,13.021 v 93.995 a 29.530502,29.530502 0 0 1 -2.645,12.613 l -18.108,38.045 a 29.530502,29.530502 0 0 1 -6.307,8.749 l -19.124,17.903 a 29.530502,29.530502 0 0 1 -7.121,5.087 l -37.841,18.92 a 29.530502,29.530502 0 0 1 -13.224,3.256 H 643.311 a 29.530502,29.530502 0 0 1 -13.224,-3.256 l -37.842,-18.92 a 29.530502,29.530502 0 0 1 -7.731,-5.493 l -18.107,-18.107 a 29.52755,29.52755 0 0 1 0,-41.708 29.52755,29.52755 0 0 1 41.911,0 l 14.445,14.648 27.465,13.632 h 98.064 l 27.872,-13.835 11.801,-11.189 12.817,-27.06 V 420.939 L 787.965,394.491 775.758,382.486 748.292,368.652 H 699.26 a 29.530502,29.530502 0 0 1 -22.176,-48.828 l 88.298,-101.115 h -178.02 a 29.52755,29.52755 0 0 1 -29.5,-29.5 29.52755,29.52755 0 0 1 29.5,-29.501 z m -327.555,59.001 v 147.909 h 113.526 l 27.465,-13.632 12.207,-12.207 12.817,-26.448 v -43.335 l -12.817,-26.448 -12.207,-12.207 -27.465,-13.632 z m 439.453,906.983 a 29.52755,29.52755 0 0 1 9.359,1.424 29.52755,29.52755 0 0 1 18.717,37.435 l -80.973,242.106 h 117.39 v -101.522 a 29.52755,29.52755 0 0 1 29.501,-29.501 29.52755,29.52755 0 0 1 29.704,29.501 v 101.522 h 26.449 a 29.52755,29.52755 0 0 1 29.5,29.5 29.52755,29.52755 0 0 1 -29.5,29.5 h -26.449 v 101.522 a 29.52755,29.52755 0 0 1 -29.704,29.5 29.52755,29.52755 0 0 1 -29.501,-29.5 V 1465.657 H 605.266 a 29.530502,29.530502 0 0 1 -27.873,-38.858 l 93.995,-280.966 a 29.52755,29.52755 0 0 1 27.872,-20.141 z m -468.953,18.921 h 150.146 a 29.530502,29.530502 0 0 1 12.614,2.847 l 37.842,18.108 a 29.530502,29.530502 0 0 1 8.341,5.697 l 18.921,18.92 a 29.530502,29.530502 0 0 1 5.9,8.342 l 17.904,38.045 a 29.530502,29.530502 0 0 1 2.848,12.614 v 55.949 a 29.530502,29.530502 0 0 1 -2.848,13.021 l -18.107,37.028 a 29.530502,29.530502 0 0 1 -5.697,7.935 l -18.921,18.921 a 29.530502,29.530502 0 0 1 -7.731,5.492 l -38.045,19.125 a 29.530502,29.530502 0 0 1 -13.021,3.051 H 259.807 v 157.471 a 29.52755,29.52755 0 0 1 -29.5,29.5 29.52755,29.52755 0 0 1 -29.5,-29.5 v -186.971 a 29.52755,29.52755 0 0 0 0,-0.203 v -205.892 a 29.530502,29.530502 0 0 1 29.5,-29.5 z m 29.5,59.001 v 147.094 h 113.526 l 27.465,-13.835 12.207,-12.003 12.817,-26.449 V 1255.9 l -13.021,-27.466 -11.8,-11.8 -27.262,-13.02 z m -29.5,925.089 h 150.146 a 29.530502,29.530502 0 0 1 13.021,3.051 l 38.045,18.921 a 29.530502,29.530502 0 0 1 7.121,5.087 l 18.921,17.904 a 29.530502,29.530502 0 0 1 6.51,8.951 l 17.904,37.842 a 29.530502,29.530502 0 0 1 2.848,12.614 v 56.152 a 29.530502,29.530502 0 0 1 -2.848,12.615 l -17.904,38.044 a 29.530502,29.530502 0 0 1 -6.51,8.748 l -18.921,17.905 a 29.530502,29.530502 0 0 1 -7.121,5.086 l -38.045,18.921 a 29.530502,29.530502 0 0 1 -13.021,3.051 H 259.807 v 158.488 a 29.52755,29.52755 0 0 1 -29.5,29.705 29.52755,29.52755 0 0 1 -29.5,-29.705 v -187.988 a 29.52755,29.52755 0 0 0 0,-0.203 v -205.689 a 29.530502,29.530502 0 0 1 29.5,-29.5 z m 394.083,0 h 187.988 a 29.52755,29.52755 0 0 1 29.5,29.5 29.52755,29.52755 0 0 1 -29.5,29.5 H 651.042 l -9.969,98.064 8.138,-4.069 a 29.530502,29.530502 0 0 1 13.225,-3.052 h 92.977 a 29.530502,29.530502 0 0 1 13.224,3.052 l 37.841,19.124 a 29.530502,29.530502 0 0 1 7.121,4.883 l 19.124,18.107 a 29.530502,29.530502 0 0 1 6.307,8.748 l 18.108,38.045 a 29.530502,29.530502 0 0 1 2.645,12.615 v 93.994 a 29.530502,29.530502 0 0 1 -2.849,12.817 l -18.107,37.028 a 29.530502,29.530502 0 0 1 -5.697,7.935 l -18.92,19.124 a 29.530502,29.530502 0 0 1 -7.732,5.494 l -37.841,18.92 a 29.530502,29.530502 0 0 1 -13.224,3.256 h -92.977 a 29.530502,29.530502 0 0 1 -13.225,-3.256 l -38.045,-18.92 a 29.530502,29.530502 0 0 1 -7.731,-5.494 l -18.921,-19.124 a 29.52755,29.52755 0 0 1 0,-41.707 29.52755,29.52755 0 0 1 41.707,0 l 15.666,15.665 27.465,13.631 h 78.94 l 27.466,-13.631 12.207,-12.207 12.817,-26.449 v -80.566 l -12.817,-26.856 -11.801,-11.19 -27.872,-14.037 h -78.94 l -27.872,14.037 -15.869,14.853 a 29.530502,29.530502 0 0 1 -49.642,-24.415 l 18.921,-186.971 a 29.530502,29.530502 0 0 1 29.5,-26.448 z m -364.583,59 v 146.892 h 113.526 l 27.871,-13.835 11.801,-11.19 12.817,-27.058 v -42.725 l -12.817,-27.059 -11.801,-11.189 -27.871,-13.836 z m -29.5,924.887 h 150.146 a 29.530502,29.530502 0 0 1 13.021,3.255 l 38.045,18.921 a 29.530502,29.530502 0 0 1 7.731,5.492 l 18.921,19.125 a 29.530502,29.530502 0 0 1 5.697,7.935 l 18.107,37.028 a 29.530502,29.530502 0 0 1 2.848,12.818 v 55.948 a 29.530502,29.530502 0 0 1 -2.848,12.614 l -17.904,38.045 a 29.530502,29.530502 0 0 1 -5.9,8.342 l -18.921,18.92 a 29.530502,29.530502 0 0 1 -8.341,5.9 l -37.842,17.905 a 29.530502,29.530502 0 0 1 -12.614,2.847 H 259.807 v 158.489 a 29.52755,29.52755 0 0 1 -29.5,29.5 29.52755,29.52755 0 0 1 -29.5,-29.5 v -187.989 a 29.52755,29.52755 0 0 0 0,-0.204 V 3142.09 a 29.530502,29.530502 0 0 1 29.5,-29.5 z m 488.078,0 h 74.869 a 29.52755,29.52755 0 0 1 29.704,29.5 29.52755,29.52755 0 0 1 -29.704,29.704 h -67.953 l -27.058,13.427 -12.818,13.428 -33.773,49.846 -7.324,28.889 22.584,-11.393 a 29.530502,29.530502 0 0 1 13.427,-3.254 h 75.074 a 29.530502,29.530502 0 0 1 13.224,3.051 l 37.841,18.92 a 29.530502,29.530502 0 0 1 7.732,5.494 l 18.92,19.124 a 29.530502,29.530502 0 0 1 5.697,7.934 l 18.107,37.029 a 29.530502,29.530502 0 0 1 2.849,12.817 v 93.994 a 29.530502,29.530502 0 0 1 -2.849,13.021 l -18.107,37.028 a 29.530502,29.530502 0 0 1 -5.697,7.934 l -18.92,18.921 a 29.530502,29.530502 0 0 1 -7.732,5.494 l -37.841,19.124 a 29.530502,29.530502 0 0 1 -13.224,3.052 h -75.074 a 29.530502,29.530502 0 0 1 -13.427,-3.255 l -37.028,-18.921 a 29.530502,29.530502 0 0 1 -7.325,-5.494 l -19.124,-18.921 a 29.530502,29.530502 0 0 1 -5.29,-7.527 l -19.124,-36.825 a 29.530502,29.530502 0 0 1 -3.255,-13.631 v -93.791 a 29.52755,29.52755 0 0 1 0,-0.406 v -55.746 a 29.530502,29.530502 0 0 1 1.017,-7.324 l 18.92,-74.869 a 29.530502,29.530502 0 0 1 4.273,-9.36 l 37.842,-55.949 a 29.530502,29.530502 0 0 1 3.052,-3.865 l 18.106,-18.921 a 29.530502,29.530502 0 0 1 8.139,-6.103 l 38.045,-18.921 a 29.530502,29.530502 0 0 1 13.225,-3.255 z m -458.578,59.204 v 146.89 h 113.932 l 27.262,-13.02 11.8,-11.8 13.021,-27.263 v -42.724 l -12.817,-26.245 -12.207,-12.207 -27.465,-13.631 z m 427.653,149.943 -26.448,13.631 -12.412,12.41 -13.63,26.449 v 79.752 l 13.63,26.652 12.412,12.411 26.448,13.631 h 60.832 l 27.466,-13.834 12.207,-12.005 12.817,-26.447 v -80.364 l -12.817,-26.448 -12.207,-12.207 -27.466,-13.631 z" />
  <g
     inkscape:label="Layer 1"
     id="layer1"
     inkscape:groupmode="layer" />
</svg>
